# Blender v2.80 (sub 55) OBJ File: 'helmet.blend'
# www.blender.org
o Cube_Cube.001
v -1.906091 -6.472163 8.952352
v -28.418659 -6.472163 -31.904102
v -17.560217 -6.472163 -38.950363
v 8.952352 -6.472163 1.906091
v -1.906091 2.780469 8.952352
v -28.418659 2.780469 -31.904102
v -17.560217 2.780469 -38.950363
v 8.952352 2.780469 1.906091
vn 0.8389 0.0000 -0.5444
vn 0.5444 0.0000 0.8389
vn -0.8389 0.0000 0.5444
vn 0.0000 1.0000 0.0000
vn 0.0000 -1.0000 -0.0000
s off
f 1//1 6//1 5//1
f 2//2 7//2 6//2
f 3//3 8//3 7//3
f 4//4 2//4 1//4
f 5//5 7//5 8//5
f 1//1 2//1 6//1
f 2//2 3//2 7//2
f 3//3 4//3 8//3
f 4//4 3//4 2//4
f 5//5 6//5 7//5
